<svg width="53" height="60" viewBox="0 0 53 60" fill="none" xmlns="http://www.w3.org/2000/svg">
<path d="M12.2468 11.1525C20.4498 5.33519 32.1664 5.81067 39.7509 12.278C47.4659 18.8611 48.52 29.6099 42.1746 37.3101C36.1975 44.5623 25.4171 46.9523 16.4419 43.2116L15.9517 42.9991L6.74929 44.9578L6.66514 44.9704L6.5915 44.9851H6.55363L6.50735 44.9957H6.4274L6.35797 45.0041L6.31379 45.002L6.2654 45.0041L6.19597 44.9978H6.12234L6.07605 44.9893L6.02976 44.9851L5.95613 44.9704L5.8846 44.9599L5.85093 44.9515L5.80044 44.9409L5.69735 44.9073L5.64686 44.8968L5.62371 44.8862L5.57743 44.8715L5.48275 44.8294L5.41964 44.8042L5.39649 44.7916L5.36704 44.7789L5.30182 44.7411L5.20714 44.6906L5.17348 44.6674L5.09564 44.6127L5.01148 44.5559L5.00727 44.5475L4.97992 44.5286L4.88945 44.4444L4.83686 44.4024L4.82423 44.3876L4.70642 44.2572L4.67907 44.2277L4.65592 44.1983L4.57387 44.0805L4.54442 44.0405L4.5339 44.0194L4.44553 43.8659L4.43081 43.8406L4.42239 43.8238L4.40766 43.7985L4.37821 43.7186L4.33613 43.6302L4.32772 43.5966L4.3193 43.5755L4.28353 43.4472L4.26881 43.4093L4.2646 43.3778L4.25408 43.3378L4.24356 43.2684L4.22673 43.18L4.22252 43.1148L4.21621 43.0937V43.0601L4.20779 42.9465L4.2099 42.8707L4.212 42.8223L4.21621 42.7108L4.22463 42.6582V42.6183L4.24146 42.5446L4.25198 42.4731L4.2625 42.431L4.27091 42.3889L4.30878 42.2627L4.31509 42.2353L6.73457 34.9769L6.68828 34.8991C2.03868 27.0158 4.14468 17.2453 11.765 11.5059L12.2468 11.1525Z" fill="white" stroke="black"/>
<g clip-path="url(#clip0_11_426)">
<path d="M20.787 41.3986C21.6461 40.506 23.0965 40.5226 23.9726 41.3987L27.3787 44.8048L27.6912 44.4924L20.809 37.6102C19.9329 36.7341 19.9163 35.2836 20.8089 34.4245C21.6739 33.592 23.05 33.6021 23.9027 34.4548L30.8157 41.3678L31.1282 41.0554L22.7228 32.65C21.8467 31.7739 21.8301 30.3234 22.7227 29.4643C23.5877 28.6318 24.9638 28.6419 25.8165 29.4946L34.2527 37.9308L34.5652 37.6184L27.722 30.7752C26.846 29.8992 26.8294 28.4487 27.722 27.5896C28.587 26.7571 29.9631 26.7672 30.8157 27.6198L40.0328 36.8369L39.5692 33.9011C39.3788 32.6959 40.2016 31.5645 41.4069 31.3742C42.6122 31.1839 43.7435 32.0067 43.9339 33.212L45.7736 44.8629C45.8388 45.2759 45.8054 45.6986 45.6761 46.0962C45.5468 46.4939 45.3252 46.8554 45.0295 47.1511L37.3123 54.8683C36.4424 55.7382 35.0882 55.8954 34.0421 55.2479L28.6066 51.883C27.9113 51.4526 27.2681 50.9431 26.6898 50.3649L20.8172 44.4923C19.9645 43.6397 19.9545 42.2636 20.787 41.3986Z" fill="white" stroke="black"/>
</g>
<defs>
<clipPath id="clip0_11_426">
<rect width="28.2801" height="28.2801" fill="white" transform="matrix(-0.707107 0.707107 0.707107 0.707107 33.0029 19.1836)"/>
</clipPath>
</defs>
</svg>
