<svg width="43" height="36" viewBox="0 0 43 36" fill="none" xmlns="http://www.w3.org/2000/svg">
<path d="M21.5 0.125C10.1098 0.125 0.874986 9.45352 0.874986 20.97C0.864201 26.0553 2.70711 30.9702 6.05874 34.7948C6.16014 34.9065 6.2521 35.0182 6.3535 35.1205C7.16561 35.875 7.41225 35.875 8.05678 35.875C8.70131 35.875 9.12499 35.875 9.76952 35.1119C12.5625 31.805 16.8594 30.375 21.5 30.375C26.1406 30.375 30.4435 31.811 33.2305 35.1119C33.875 35.875 34.2892 35.875 34.9432 35.875C35.5972 35.875 35.9143 35.875 36.6465 35.1205C36.7513 35.013 36.8398 34.9065 36.9412 34.7948C40.2929 30.9702 42.1358 26.0553 42.125 20.97C42.125 9.45352 32.8901 0.125 21.5 0.125ZM20.125 5.625H22.875V11.125H20.125V5.625ZM11.875 22.125H6.37499V19.375H11.875V22.125ZM13.7218 14.9166L9.83311 11.027L11.777 9.08313L15.6665 12.9718L13.7218 14.9166ZM23.4422 22.4172C23.2752 22.6486 23.0721 22.8517 22.8406 23.0187C22.2819 23.4085 21.5919 23.5623 20.9205 23.4465C20.2492 23.3308 19.6505 22.9549 19.2545 22.4006C18.8585 21.8462 18.6972 21.158 18.8054 20.4854C18.9137 19.8127 19.2829 19.2099 19.8328 18.8078L27 15.25L23.4422 22.4172ZM27.3334 12.9718L31.223 9.08313L33.1669 11.027L29.2782 14.9166L27.3334 12.9718ZM36.625 22.125H31.125V19.375H36.625V22.125Z" fill="white"/>
</svg>
