<svg width="28" height="29" viewBox="0 0 28 29" fill="none" xmlns="http://www.w3.org/2000/svg">
<path d="M25.1825 18.8733C22.2425 17.4042 18.4275 16.2083 14 16.2083C9.5725 16.2083 5.7575 17.4042 2.8175 18.8733C1.9636 19.3027 1.24828 19.9546 0.750924 20.7567C0.253571 21.5589 -0.00635382 22.4799 -7.07936e-07 23.4175V28.1667H28V23.4175C28 21.5042 26.9325 19.7446 25.1825 18.8733ZM10.115 14.5H17.885C20.0025 14.5 21.63 12.6892 21.35 10.6392L20.79 6.45374C20.2475 3.20791 17.36 0.833328 14 0.833328C10.64 0.833328 7.7525 3.20791 7.21 6.45374L6.65 10.6392C6.37 12.6892 7.9975 14.5 10.115 14.5Z" fill="white"/>
</svg>
